<svg xmlns="http://www.w3.org/2000/svg" viewBox="0 0 1600 900" role="img" aria-label="Horionis">
  <defs>
    <linearGradient id="bg" x1="0" y1="0" x2="1" y2="1"><stop stop-color="#020508"/><stop offset=".55" stop-color="#12333f"/><stop offset="1" stop-color="#020508"/></linearGradient>
    <radialGradient id="planet"><stop stop-color="#22d3ee" stop-opacity=".8"/><stop offset=".55" stop-color="#12333f" stop-opacity=".95"/><stop offset="1" stop-color="#010208"/></radialGradient>
    <linearGradient id="metal" x1="0" y1="0" x2="1" y2="1"><stop stop-color="#d7efff"/><stop offset=".35" stop-color="#22d3ee"/><stop offset=".7" stop-color="#29344e"/><stop offset="1" stop-color="#090d18"/></linearGradient>
    <linearGradient id="beam" x1="0" y1="0" x2="0" y2="1"><stop stop-color="#22d3ee" stop-opacity=".55"/><stop offset="1" stop-color="#22d3ee" stop-opacity="0"/></linearGradient>
    <linearGradient id="stone" x1="0" y1="0" x2="1" y2="1"><stop stop-color="#22d3ee" stop-opacity=".5"/><stop offset="1" stop-color="#15120d"/></linearGradient>
    <linearGradient id="stone2" x1="0" y1="0" x2="1" y2="1"><stop stop-color="#f472b6" stop-opacity=".38"/><stop offset="1" stop-color="#0a0910"/></linearGradient>
    <linearGradient id="spot" x1="0" y1="0" x2="0" y2="1"><stop stop-color="#22d3ee" stop-opacity=".05"/><stop offset="1" stop-color="#22d3ee" stop-opacity=".55"/></linearGradient>
    <linearGradient id="spot2" x1="0" y1="0" x2="0" y2="1"><stop stop-color="#f472b6" stop-opacity=".05"/><stop offset="1" stop-color="#f472b6" stop-opacity=".5"/></linearGradient>
    <radialGradient id="iris"><stop stop-color="#22d3ee" stop-opacity=".9"/><stop offset=".6" stop-color="#f472b6" stop-opacity=".28"/><stop offset="1" stop-color="#12333f" stop-opacity=".05"/></radialGradient>
    <filter id="glow"><feGaussianBlur stdDeviation="10" result="b"/><feMerge><feMergeNode in="b"/><feMergeNode in="SourceGraphic"/></feMerge></filter>
    <filter id="soft"><feGaussianBlur stdDeviation="6"/></filter>
  </defs>
  <rect width="1600" height="900" fill="url(#bg)"/>
  <circle cx="1390" cy="291" r="2.2" fill="#fff" opacity="0.61"/><circle cx="864" cy="882" r="2.3" fill="#fff" opacity="0.53"/><circle cx="345" cy="499" r="2.4" fill="#fff" opacity="0.32"/><circle cx="245" cy="847" r="2.0" fill="#fff" opacity="0.70"/><circle cx="1269" cy="302" r="0.4" fill="#fff" opacity="0.74"/><circle cx="613" cy="159" r="1.3" fill="#fff" opacity="0.40"/><circle cx="787" cy="156" r="1.2" fill="#fff" opacity="0.57"/><circle cx="887" cy="227" r="1.1" fill="#fff" opacity="0.48"/><circle cx="1348" cy="452" r="2.0" fill="#fff" opacity="0.37"/><circle cx="799" cy="398" r="0.9" fill="#fff" opacity="0.69"/><circle cx="834" cy="180" r="1.6" fill="#fff" opacity="0.26"/><circle cx="1350" cy="369" r="0.9" fill="#fff" opacity="0.56"/><circle cx="1453" cy="840" r="0.8" fill="#fff" opacity="0.72"/><circle cx="563" cy="635" r="0.6" fill="#fff" opacity="0.45"/><circle cx="1152" cy="275" r="2.2" fill="#fff" opacity="0.80"/><circle cx="530" cy="61" r="1.1" fill="#fff" opacity="0.73"/><circle cx="1111" cy="735" r="0.7" fill="#fff" opacity="0.70"/><circle cx="174" cy="494" r="1.9" fill="#fff" opacity="0.44"/><circle cx="556" cy="580" r="0.9" fill="#fff" opacity="0.39"/><circle cx="895" cy="395" r="1.1" fill="#fff" opacity="0.47"/><circle cx="1252" cy="203" r="1.1" fill="#fff" opacity="0.61"/><circle cx="1128" cy="17" r="1.2" fill="#fff" opacity="0.52"/><circle cx="914" cy="598" r="0.5" fill="#fff" opacity="0.49"/><circle cx="592" cy="99" r="1.0" fill="#fff" opacity="0.59"/><circle cx="1107" cy="842" r="0.7" fill="#fff" opacity="0.32"/><circle cx="1447" cy="400" r="1.6" fill="#fff" opacity="0.55"/><circle cx="846" cy="827" r="1.8" fill="#fff" opacity="0.43"/><circle cx="1543" cy="765" r="0.6" fill="#fff" opacity="0.62"/><circle cx="1507" cy="209" r="0.6" fill="#fff" opacity="0.83"/><circle cx="578" cy="217" r="1.1" fill="#fff" opacity="0.67"/><circle cx="622" cy="794" r="1.9" fill="#fff" opacity="0.50"/><circle cx="1547" cy="384" r="1.0" fill="#fff" opacity="0.45"/><circle cx="188" cy="655" r="1.5" fill="#fff" opacity="0.32"/><circle cx="1097" cy="657" r="0.4" fill="#fff" opacity="0.76"/><circle cx="665" cy="682" r="2.4" fill="#fff" opacity="0.68"/><circle cx="781" cy="376" r="0.7" fill="#fff" opacity="0.56"/><circle cx="1484" cy="157" r="2.3" fill="#fff" opacity="0.65"/><circle cx="807" cy="852" r="2.2" fill="#fff" opacity="0.69"/><circle cx="47" cy="266" r="1.6" fill="#fff" opacity="0.21"/><circle cx="296" cy="19" r="2.1" fill="#fff" opacity="0.78"/><circle cx="433" cy="242" r="1.7" fill="#fff" opacity="0.59"/><circle cx="833" cy="411" r="1.0" fill="#fff" opacity="0.53"/><circle cx="1396" cy="539" r="0.5" fill="#fff" opacity="0.60"/><circle cx="521" cy="783" r="1.1" fill="#fff" opacity="0.59"/><circle cx="473" cy="429" r="1.6" fill="#fff" opacity="0.24"/><circle cx="933" cy="149" r="2.1" fill="#fff" opacity="0.77"/><circle cx="1387" cy="848" r="1.5" fill="#fff" opacity="0.25"/><circle cx="1363" cy="761" r="1.8" fill="#fff" opacity="0.67"/><circle cx="745" cy="752" r="1.5" fill="#fff" opacity="0.56"/><circle cx="1186" cy="118" r="1.1" fill="#fff" opacity="0.43"/><circle cx="449" cy="523" r="1.1" fill="#fff" opacity="0.26"/><circle cx="703" cy="800" r="2.4" fill="#fff" opacity="0.36"/><circle cx="991" cy="693" r="2.1" fill="#fff" opacity="0.74"/><circle cx="500" cy="341" r="2.2" fill="#fff" opacity="0.79"/><circle cx="1262" cy="508" r="2.0" fill="#fff" opacity="0.45"/><circle cx="899" cy="729" r="0.6" fill="#fff" opacity="0.68"/><circle cx="53" cy="816" r="2.3" fill="#fff" opacity="0.58"/><circle cx="1511" cy="640" r="2.6" fill="#fff" opacity="0.71"/><circle cx="858" cy="493" r="0.9" fill="#fff" opacity="0.29"/><circle cx="888" cy="97" r="1.7" fill="#fff" opacity="0.30"/><circle cx="777" cy="796" r="2.2" fill="#fff" opacity="0.68"/><circle cx="1078" cy="469" r="1.7" fill="#fff" opacity="0.35"/><circle cx="321" cy="546" r="1.2" fill="#fff" opacity="0.50"/><circle cx="1079" cy="697" r="2.1" fill="#fff" opacity="0.72"/><circle cx="510" cy="150" r="0.4" fill="#fff" opacity="0.55"/><circle cx="1590" cy="547" r="0.7" fill="#fff" opacity="0.66"/><circle cx="84" cy="43" r="0.8" fill="#fff" opacity="0.50"/><circle cx="263" cy="103" r="1.4" fill="#fff" opacity="0.86"/><circle cx="799" cy="770" r="1.6" fill="#fff" opacity="0.25"/><circle cx="1460" cy="884" r="1.5" fill="#fff" opacity="0.85"/><circle cx="35" cy="197" r="2.2" fill="#fff" opacity="0.69"/><circle cx="504" cy="498" r="1.9" fill="#fff" opacity="0.77"/><circle cx="1094" cy="451" r="2.4" fill="#fff" opacity="0.58"/><circle cx="30" cy="618" r="1.3" fill="#fff" opacity="0.65"/><circle cx="1211" cy="295" r="2.5" fill="#fff" opacity="0.59"/><circle cx="843" cy="405" r="0.4" fill="#fff" opacity="0.47"/><circle cx="447" cy="828" r="1.5" fill="#fff" opacity="0.55"/><circle cx="866" cy="543" r="0.4" fill="#fff" opacity="0.58"/><circle cx="1101" cy="225" r="1.7" fill="#fff" opacity="0.47"/><circle cx="598" cy="822" r="1.0" fill="#fff" opacity="0.85"/><circle cx="809" cy="0" r="0.8" fill="#fff" opacity="0.33"/><circle cx="662" cy="240" r="1.3" fill="#fff" opacity="0.75"/>
  <circle cx="390" cy="260" r="200" fill="#f472b6" opacity=".06" filter="url(#soft)"/>
  
      <g opacity=".22" stroke="#22d3ee" stroke-width="2"><path d="M160 0V900"/><path d="M305 0V900"/><path d="M450 0V900"/><path d="M595 0V900"/><path d="M740 0V900"/><path d="M885 0V900"/><path d="M1030 0V900"/><path d="M1175 0V900"/><path d="M1320 0V900"/><path d="M1465 0V900"/><path d="M0 120H1600"/><path d="M0 260H1600"/><path d="M0 400H1600"/><path d="M0 540H1600"/><path d="M0 680H1600"/><path d="M0 820H1600"/></g>
      <circle cx="960" cy="450" r="202" fill="none" stroke="#f472b6" stroke-width="5" opacity=".25"/>
      <circle cx="960" cy="450" r="191" fill="none" stroke="#22d3ee" stroke-width="3" opacity=".38" stroke-dasharray="18 14"/>
      <path d="M620 450 C640 290,980 650,1160 450 S1260 250,1450 450" fill="none" stroke="#22d3ee" stroke-width="10" opacity=".22" filter="url(#glow)"/>
      <circle cx="960" cy="450" r="46" fill="#22d3ee" opacity=".9" filter="url(#glow)"/>
  <rect width="1600" height="900" fill="none" stroke="#22d3ee" stroke-opacity=".08" stroke-width="2"/>
  </svg>