<svg xmlns="http://www.w3.org/2000/svg" viewBox="0 0 1600 900" role="img" aria-label="Horionis">
  <defs>
    <linearGradient id="bg" x1="0" y1="0" x2="1" y2="1"><stop stop-color="#03030a"/><stop offset=".55" stop-color="#18203f"/><stop offset="1" stop-color="#03030a"/></linearGradient>
    <radialGradient id="planet"><stop stop-color="#7dd3fc" stop-opacity=".8"/><stop offset=".55" stop-color="#18203f" stop-opacity=".95"/><stop offset="1" stop-color="#010208"/></radialGradient>
    <linearGradient id="metal" x1="0" y1="0" x2="1" y2="1"><stop stop-color="#d7efff"/><stop offset=".35" stop-color="#7dd3fc"/><stop offset=".7" stop-color="#29344e"/><stop offset="1" stop-color="#090d18"/></linearGradient>
    <linearGradient id="beam" x1="0" y1="0" x2="0" y2="1"><stop stop-color="#7dd3fc" stop-opacity=".55"/><stop offset="1" stop-color="#7dd3fc" stop-opacity="0"/></linearGradient>
    <linearGradient id="stone" x1="0" y1="0" x2="1" y2="1"><stop stop-color="#7dd3fc" stop-opacity=".5"/><stop offset="1" stop-color="#15120d"/></linearGradient>
    <linearGradient id="stone2" x1="0" y1="0" x2="1" y2="1"><stop stop-color="#c084fc" stop-opacity=".38"/><stop offset="1" stop-color="#0a0910"/></linearGradient>
    <linearGradient id="spot" x1="0" y1="0" x2="0" y2="1"><stop stop-color="#7dd3fc" stop-opacity=".05"/><stop offset="1" stop-color="#7dd3fc" stop-opacity=".55"/></linearGradient>
    <linearGradient id="spot2" x1="0" y1="0" x2="0" y2="1"><stop stop-color="#c084fc" stop-opacity=".05"/><stop offset="1" stop-color="#c084fc" stop-opacity=".5"/></linearGradient>
    <radialGradient id="iris"><stop stop-color="#7dd3fc" stop-opacity=".9"/><stop offset=".6" stop-color="#c084fc" stop-opacity=".28"/><stop offset="1" stop-color="#18203f" stop-opacity=".05"/></radialGradient>
    <filter id="glow"><feGaussianBlur stdDeviation="10" result="b"/><feMerge><feMergeNode in="b"/><feMergeNode in="SourceGraphic"/></feMerge></filter>
    <filter id="soft"><feGaussianBlur stdDeviation="6"/></filter>
  </defs>
  <rect width="1600" height="900" fill="url(#bg)"/>
  <circle cx="160" cy="493" r="2.0" fill="#fff" opacity="0.35"/><circle cx="966" cy="15" r="1.6" fill="#fff" opacity="0.66"/><circle cx="1508" cy="623" r="1.7" fill="#fff" opacity="0.81"/><circle cx="23" cy="395" r="0.8" fill="#fff" opacity="0.83"/><circle cx="387" cy="188" r="0.9" fill="#fff" opacity="0.32"/><circle cx="1038" cy="585" r="0.4" fill="#fff" opacity="0.31"/><circle cx="1295" cy="454" r="1.5" fill="#fff" opacity="0.33"/><circle cx="681" cy="666" r="1.9" fill="#fff" opacity="0.86"/><circle cx="892" cy="569" r="0.7" fill="#fff" opacity="0.45"/><circle cx="1231" cy="212" r="1.5" fill="#fff" opacity="0.41"/><circle cx="1125" cy="861" r="1.4" fill="#fff" opacity="0.87"/><circle cx="1361" cy="159" r="1.2" fill="#fff" opacity="0.88"/><circle cx="859" cy="119" r="0.4" fill="#fff" opacity="0.60"/><circle cx="609" cy="450" r="2.3" fill="#fff" opacity="0.53"/><circle cx="1201" cy="357" r="1.1" fill="#fff" opacity="0.32"/><circle cx="1560" cy="663" r="0.8" fill="#fff" opacity="0.81"/><circle cx="533" cy="152" r="2.2" fill="#fff" opacity="0.33"/><circle cx="124" cy="18" r="1.3" fill="#fff" opacity="0.54"/><circle cx="36" cy="875" r="2.0" fill="#fff" opacity="0.41"/><circle cx="713" cy="370" r="1.7" fill="#fff" opacity="0.43"/><circle cx="523" cy="592" r="2.5" fill="#fff" opacity="0.90"/><circle cx="318" cy="478" r="0.6" fill="#fff" opacity="0.46"/><circle cx="162" cy="853" r="1.1" fill="#fff" opacity="0.28"/><circle cx="692" cy="459" r="2.1" fill="#fff" opacity="0.67"/><circle cx="1106" cy="259" r="1.3" fill="#fff" opacity="0.89"/><circle cx="621" cy="220" r="1.5" fill="#fff" opacity="0.36"/><circle cx="1021" cy="12" r="2.3" fill="#fff" opacity="0.58"/><circle cx="310" cy="875" r="1.5" fill="#fff" opacity="0.70"/><circle cx="1517" cy="746" r="1.7" fill="#fff" opacity="0.33"/><circle cx="254" cy="140" r="2.5" fill="#fff" opacity="0.90"/><circle cx="1471" cy="538" r="0.6" fill="#fff" opacity="0.50"/><circle cx="1020" cy="612" r="1.4" fill="#fff" opacity="0.54"/><circle cx="860" cy="402" r="2.0" fill="#fff" opacity="0.52"/><circle cx="725" cy="325" r="1.7" fill="#fff" opacity="0.39"/><circle cx="684" cy="163" r="0.7" fill="#fff" opacity="0.45"/><circle cx="1412" cy="692" r="2.4" fill="#fff" opacity="0.28"/><circle cx="600" cy="14" r="1.9" fill="#fff" opacity="0.42"/><circle cx="332" cy="328" r="1.2" fill="#fff" opacity="0.31"/><circle cx="646" cy="550" r="0.6" fill="#fff" opacity="0.54"/><circle cx="1316" cy="849" r="0.9" fill="#fff" opacity="0.62"/><circle cx="669" cy="388" r="0.4" fill="#fff" opacity="0.74"/><circle cx="1461" cy="358" r="0.6" fill="#fff" opacity="0.23"/><circle cx="656" cy="367" r="1.7" fill="#fff" opacity="0.44"/><circle cx="1101" cy="709" r="1.7" fill="#fff" opacity="0.68"/><circle cx="359" cy="828" r="0.9" fill="#fff" opacity="0.24"/><circle cx="290" cy="654" r="1.7" fill="#fff" opacity="0.48"/><circle cx="1428" cy="75" r="1.4" fill="#fff" opacity="0.63"/><circle cx="976" cy="70" r="0.8" fill="#fff" opacity="0.59"/><circle cx="831" cy="319" r="1.8" fill="#fff" opacity="0.58"/><circle cx="482" cy="869" r="2.1" fill="#fff" opacity="0.66"/><circle cx="1190" cy="405" r="0.4" fill="#fff" opacity="0.22"/><circle cx="286" cy="85" r="1.0" fill="#fff" opacity="0.76"/><circle cx="1206" cy="511" r="1.6" fill="#fff" opacity="0.54"/><circle cx="1293" cy="350" r="1.6" fill="#fff" opacity="0.87"/><circle cx="1385" cy="842" r="0.6" fill="#fff" opacity="0.25"/><circle cx="19" cy="843" r="1.1" fill="#fff" opacity="0.25"/><circle cx="1070" cy="594" r="1.0" fill="#fff" opacity="0.81"/><circle cx="65" cy="223" r="2.6" fill="#fff" opacity="0.88"/><circle cx="1168" cy="805" r="2.6" fill="#fff" opacity="0.84"/><circle cx="499" cy="749" r="2.2" fill="#fff" opacity="0.23"/><circle cx="1376" cy="285" r="0.9" fill="#fff" opacity="0.32"/><circle cx="1130" cy="69" r="1.5" fill="#fff" opacity="0.73"/><circle cx="1510" cy="828" r="1.9" fill="#fff" opacity="0.28"/><circle cx="691" cy="406" r="1.9" fill="#fff" opacity="0.25"/><circle cx="536" cy="106" r="2.4" fill="#fff" opacity="0.38"/><circle cx="711" cy="10" r="1.8" fill="#fff" opacity="0.56"/><circle cx="1294" cy="141" r="2.2" fill="#fff" opacity="0.53"/><circle cx="698" cy="199" r="0.4" fill="#fff" opacity="0.32"/><circle cx="130" cy="765" r="0.6" fill="#fff" opacity="0.28"/><circle cx="616" cy="85" r="1.3" fill="#fff" opacity="0.51"/><circle cx="1419" cy="553" r="2.0" fill="#fff" opacity="0.83"/><circle cx="1063" cy="570" r="1.2" fill="#fff" opacity="0.68"/><circle cx="1000" cy="742" r="2.0" fill="#fff" opacity="0.69"/><circle cx="1146" cy="536" r="0.7" fill="#fff" opacity="0.57"/><circle cx="898" cy="431" r="1.8" fill="#fff" opacity="0.28"/><circle cx="466" cy="506" r="1.9" fill="#fff" opacity="0.32"/><circle cx="954" cy="163" r="0.9" fill="#fff" opacity="0.74"/><circle cx="390" cy="289" r="1.8" fill="#fff" opacity="0.46"/><circle cx="956" cy="384" r="1.4" fill="#fff" opacity="0.59"/><circle cx="1430" cy="514" r="1.3" fill="#fff" opacity="0.36"/><circle cx="463" cy="187" r="0.9" fill="#fff" opacity="0.65"/><circle cx="1524" cy="832" r="1.1" fill="#fff" opacity="0.87"/>
  <circle cx="200" cy="180" r="240" fill="#c084fc" opacity=".06" filter="url(#soft)"/>
  
      <path d="M250 900 L590 250 L730 900Z" fill="url(#spot)" opacity=".42"/>
      <path d="M1350 900 L1010 250 L870 900Z" fill="url(#spot2)" opacity=".34"/>
      <ellipse cx="800" cy="720" rx="470" ry="95" fill="#070916" stroke="#7dd3fc" stroke-width="3" opacity=".78"/>
      <circle cx="800" cy="380" r="105" fill="none" stroke="#c084fc" stroke-width="5" opacity=".25"/>
      <circle cx="800" cy="380" r="55" fill="none" stroke="#7dd3fc" stroke-width="3" opacity=".5" stroke-dasharray="10 12"/>
  <rect width="1600" height="900" fill="none" stroke="#7dd3fc" stroke-opacity=".08" stroke-width="2"/>
  </svg>