<svg xmlns="http://www.w3.org/2000/svg" viewBox="0 0 1600 900" role="img" aria-label="Horionis">
  <defs>
    <linearGradient id="bg" x1="0" y1="0" x2="1" y2="1"><stop stop-color="#080707"/><stop offset=".55" stop-color="#3a2412"/><stop offset="1" stop-color="#080707"/></linearGradient>
    <radialGradient id="planet"><stop stop-color="#d6b36a" stop-opacity=".8"/><stop offset=".55" stop-color="#3a2412" stop-opacity=".95"/><stop offset="1" stop-color="#010208"/></radialGradient>
    <linearGradient id="metal" x1="0" y1="0" x2="1" y2="1"><stop stop-color="#d7efff"/><stop offset=".35" stop-color="#d6b36a"/><stop offset=".7" stop-color="#29344e"/><stop offset="1" stop-color="#090d18"/></linearGradient>
    <linearGradient id="beam" x1="0" y1="0" x2="0" y2="1"><stop stop-color="#d6b36a" stop-opacity=".55"/><stop offset="1" stop-color="#d6b36a" stop-opacity="0"/></linearGradient>
    <linearGradient id="stone" x1="0" y1="0" x2="1" y2="1"><stop stop-color="#d6b36a" stop-opacity=".5"/><stop offset="1" stop-color="#15120d"/></linearGradient>
    <linearGradient id="stone2" x1="0" y1="0" x2="1" y2="1"><stop stop-color="#6f7cff" stop-opacity=".38"/><stop offset="1" stop-color="#0a0910"/></linearGradient>
    <linearGradient id="spot" x1="0" y1="0" x2="0" y2="1"><stop stop-color="#d6b36a" stop-opacity=".05"/><stop offset="1" stop-color="#d6b36a" stop-opacity=".55"/></linearGradient>
    <linearGradient id="spot2" x1="0" y1="0" x2="0" y2="1"><stop stop-color="#6f7cff" stop-opacity=".05"/><stop offset="1" stop-color="#6f7cff" stop-opacity=".5"/></linearGradient>
    <radialGradient id="iris"><stop stop-color="#d6b36a" stop-opacity=".9"/><stop offset=".6" stop-color="#6f7cff" stop-opacity=".28"/><stop offset="1" stop-color="#3a2412" stop-opacity=".05"/></radialGradient>
    <filter id="glow"><feGaussianBlur stdDeviation="10" result="b"/><feMerge><feMergeNode in="b"/><feMergeNode in="SourceGraphic"/></feMerge></filter>
    <filter id="soft"><feGaussianBlur stdDeviation="6"/></filter>
  </defs>
  <rect width="1600" height="900" fill="url(#bg)"/>
  <circle cx="270" cy="542" r="2.4" fill="#fff" opacity="0.74"/><circle cx="909" cy="326" r="2.3" fill="#fff" opacity="0.77"/><circle cx="1576" cy="774" r="2.4" fill="#fff" opacity="0.26"/><circle cx="1470" cy="819" r="1.7" fill="#fff" opacity="0.48"/><circle cx="560" cy="809" r="0.6" fill="#fff" opacity="0.29"/><circle cx="1554" cy="244" r="1.8" fill="#fff" opacity="0.80"/><circle cx="942" cy="634" r="1.6" fill="#fff" opacity="0.87"/><circle cx="1231" cy="4" r="2.0" fill="#fff" opacity="0.48"/><circle cx="102" cy="867" r="1.4" fill="#fff" opacity="0.68"/><circle cx="613" cy="657" r="1.6" fill="#fff" opacity="0.36"/><circle cx="570" cy="379" r="1.5" fill="#fff" opacity="0.53"/><circle cx="1195" cy="17" r="1.8" fill="#fff" opacity="0.41"/><circle cx="415" cy="725" r="0.5" fill="#fff" opacity="0.73"/><circle cx="494" cy="765" r="0.8" fill="#fff" opacity="0.37"/><circle cx="937" cy="287" r="1.3" fill="#fff" opacity="0.45"/><circle cx="791" cy="563" r="0.6" fill="#fff" opacity="0.45"/><circle cx="1260" cy="611" r="1.4" fill="#fff" opacity="0.75"/><circle cx="1573" cy="677" r="2.2" fill="#fff" opacity="0.65"/><circle cx="617" cy="661" r="1.8" fill="#fff" opacity="0.54"/><circle cx="1270" cy="705" r="2.6" fill="#fff" opacity="0.81"/><circle cx="346" cy="576" r="0.9" fill="#fff" opacity="0.43"/><circle cx="298" cy="114" r="1.9" fill="#fff" opacity="0.73"/><circle cx="778" cy="531" r="2.2" fill="#fff" opacity="0.84"/><circle cx="601" cy="276" r="2.3" fill="#fff" opacity="0.34"/><circle cx="1027" cy="105" r="1.1" fill="#fff" opacity="0.33"/><circle cx="88" cy="719" r="0.8" fill="#fff" opacity="0.56"/><circle cx="84" cy="860" r="2.6" fill="#fff" opacity="0.85"/><circle cx="1176" cy="379" r="0.7" fill="#fff" opacity="0.78"/><circle cx="802" cy="418" r="0.7" fill="#fff" opacity="0.50"/><circle cx="1430" cy="261" r="1.1" fill="#fff" opacity="0.54"/><circle cx="792" cy="554" r="2.3" fill="#fff" opacity="0.31"/><circle cx="1505" cy="301" r="1.3" fill="#fff" opacity="0.54"/><circle cx="613" cy="482" r="0.7" fill="#fff" opacity="0.56"/><circle cx="1583" cy="343" r="2.5" fill="#fff" opacity="0.23"/><circle cx="459" cy="564" r="1.0" fill="#fff" opacity="0.63"/><circle cx="719" cy="712" r="2.4" fill="#fff" opacity="0.30"/><circle cx="1352" cy="211" r="2.3" fill="#fff" opacity="0.36"/><circle cx="676" cy="605" r="0.7" fill="#fff" opacity="0.39"/><circle cx="1232" cy="797" r="1.5" fill="#fff" opacity="0.69"/><circle cx="1470" cy="576" r="1.6" fill="#fff" opacity="0.26"/><circle cx="351" cy="77" r="1.5" fill="#fff" opacity="0.84"/><circle cx="1408" cy="135" r="1.1" fill="#fff" opacity="0.34"/><circle cx="1558" cy="616" r="1.3" fill="#fff" opacity="0.46"/><circle cx="29" cy="353" r="1.5" fill="#fff" opacity="0.22"/><circle cx="693" cy="715" r="0.5" fill="#fff" opacity="0.46"/><circle cx="748" cy="671" r="2.4" fill="#fff" opacity="0.70"/><circle cx="676" cy="252" r="2.4" fill="#fff" opacity="0.29"/><circle cx="389" cy="712" r="1.2" fill="#fff" opacity="0.27"/><circle cx="1300" cy="727" r="1.9" fill="#fff" opacity="0.24"/><circle cx="836" cy="808" r="1.0" fill="#fff" opacity="0.72"/><circle cx="1521" cy="408" r="0.9" fill="#fff" opacity="0.26"/><circle cx="1163" cy="328" r="1.4" fill="#fff" opacity="0.89"/><circle cx="1446" cy="791" r="2.6" fill="#fff" opacity="0.22"/><circle cx="682" cy="109" r="1.0" fill="#fff" opacity="0.34"/><circle cx="825" cy="63" r="1.0" fill="#fff" opacity="0.24"/><circle cx="82" cy="898" r="0.9" fill="#fff" opacity="0.85"/><circle cx="444" cy="568" r="1.3" fill="#fff" opacity="0.28"/><circle cx="667" cy="502" r="1.6" fill="#fff" opacity="0.32"/><circle cx="14" cy="583" r="2.2" fill="#fff" opacity="0.62"/><circle cx="100" cy="439" r="1.6" fill="#fff" opacity="0.75"/><circle cx="558" cy="104" r="1.4" fill="#fff" opacity="0.82"/><circle cx="641" cy="497" r="2.1" fill="#fff" opacity="0.80"/><circle cx="108" cy="825" r="2.4" fill="#fff" opacity="0.27"/><circle cx="1090" cy="100" r="2.4" fill="#fff" opacity="0.33"/><circle cx="292" cy="340" r="0.6" fill="#fff" opacity="0.75"/><circle cx="1226" cy="183" r="2.3" fill="#fff" opacity="0.73"/><circle cx="1425" cy="339" r="0.7" fill="#fff" opacity="0.76"/><circle cx="1147" cy="165" r="2.5" fill="#fff" opacity="0.52"/><circle cx="499" cy="17" r="2.4" fill="#fff" opacity="0.30"/><circle cx="312" cy="840" r="1.8" fill="#fff" opacity="0.63"/><circle cx="77" cy="784" r="0.6" fill="#fff" opacity="0.83"/><circle cx="1083" cy="561" r="1.5" fill="#fff" opacity="0.75"/><circle cx="877" cy="684" r="1.8" fill="#fff" opacity="0.39"/><circle cx="762" cy="43" r="1.9" fill="#fff" opacity="0.58"/><circle cx="470" cy="123" r="1.4" fill="#fff" opacity="0.62"/><circle cx="934" cy="462" r="0.8" fill="#fff" opacity="0.39"/><circle cx="1267" cy="899" r="1.1" fill="#fff" opacity="0.56"/><circle cx="507" cy="268" r="0.4" fill="#fff" opacity="0.28"/><circle cx="609" cy="338" r="1.2" fill="#fff" opacity="0.30"/><circle cx="1253" cy="599" r="1.3" fill="#fff" opacity="0.85"/><circle cx="1358" cy="342" r="1.8" fill="#fff" opacity="0.41"/><circle cx="249" cy="401" r="1.0" fill="#fff" opacity="0.44"/>
  <circle cx="200" cy="180" r="240" fill="#6f7cff" opacity=".06" filter="url(#soft)"/>
  
      <circle cx="1260" cy="210" r="150" fill="#6f7cff" opacity=".12" filter="url(#glow)"/>
      <path d="M170 760 L480 400 L790 760 Z" fill="url(#stone)" opacity=".95"/>
      <path d="M450 760 L790 310 L1130 760 Z" fill="url(#stone2)" opacity=".78"/>
      <path d="M0 760 Q420 690 820 760 T1600 735V900H0Z" fill="#050606"/>
      <path d="M798 328 L798 690" stroke="#d6b36a" stroke-width="3" opacity=".23"/>
      <circle cx="798" cy="520" r="58" fill="none" stroke="#d6b36a" stroke-width="4" opacity=".18"/>
  <rect width="1600" height="900" fill="none" stroke="#d6b36a" stroke-opacity=".08" stroke-width="2"/>
  </svg>